:version 1.10
:name ASF
:units
  mass 1
  length 1
  angle deg
:documentation
  ASF file generated by Kaydara
:root
  axis xyz
  order  tx ty tz rx ry rz
  position 0 0 0
  orientation 0 0 0
:bonedata
  begin
    id 1
    name RightUpLegDummy
    direction -0.65628 -0.754516 0.00165102
    length 4.76918
    axis 0 0 0 xyz
  end
  begin
    id 2
    name RightUpLeg
    direction -0.145584 -0.923362 0.355256
    length 17.9961
    axis -24.7611 -13.1006 1.78531 xyz
    dof rx ry rz
  end
  begin
    id 3
    name RightLeg
    direction 0.263379 0.172355 -0.949171
    length 13.3386
    axis 89.6202 -21.1929 12.3855 xyz
    dof rx ry rz
  end
  begin
    id 4
    name RightFoot
    direction 0.224283 -0.968777 -0.105675
    length 5.86697
    axis 56.995 -39.6905 17.3365 xyz
    dof rx ry rz
  end
  begin
    id 5
    name RightToes
    direction -0.0806345 -0.9037 0.420506
    length 4.75197
    axis 146.825 -39.7828 17.6019 xyz
    dof rx ry rz
  end
  begin
    id 6
    name SpineDummy
    direction -3.39852e-014 1 9.33296e-014
    length 8.13779
    axis 0 0 0 xyz
  end
  begin
    id 7
    name Spine
    direction -0.156609 0.733703 0.661176
    length 7.14978
    axis 41.2365 5.68757 17.0844 xyz
    dof rx ry rz
  end
  begin
    id 8
    name Spine1
    direction 0 0 0
    length 0
    axis 42.8809 47.8308 -3.36039 xyz
    dof rx ry rz
  end
  begin
    id 9
    name HEadDummy
    direction 0.546431 0.701947 0.456819
    length 3.55512
    axis 42.8809 47.8308 -3.36039 xyz
  end
  begin
    id 10
    name HEad
    direction 0.23444 0.828559 0.508457
    length 7.35827
    axis 51.1864 49.2662 27.4903 xyz
    dof rx ry rz
  end
  begin
    id 11
    name LeftShoulder1Dummy
    direction 0.431183 0.475873 -0.766568
    length 2.49352
    axis 42.8809 47.8308 -3.36039 xyz
  end
  begin
    id 12
    name LeftShoulder1
    direction 0.268187 -0.383402 -0.883786
    length 4.48604
    axis -119.517 0.106469 35.1736 xyz
    dof rx ry rz
  end
  begin
    id 13
    name LeftArm
    direction 0.380567 -0.703221 -0.600541
    length 10.1142
    axis -5.41825 36.2925 7.8293 xyz
    dof rx ry rz
  end
  begin
    id 14
    name LeftForeArm
    direction 0.541071 -0.732356 -0.413396
    length 9.39839
    axis 4.65387 33.7604 7.81644 xyz
    dof rx ry rz
  end
  begin
    id 15
    name LeftHand
    direction 0.847511 -0.389379 -0.360707
    length 3.66142
    axis 7.65593 21.1436 -24.6758 xyz
    dof rx ry rz
  end
  begin
    id 16
    name RightShoulderDummy
    direction -0.692546 0.541855 0.476208
    length 2.49352
    axis 42.8809 47.8308 -3.36039 xyz
  end
  begin
    id 17
    name RightShoulder
    direction -0.870808 -0.316653 0.376065
    length 4.48602
    axis 141.571 51.133 -100.254 xyz
    dof rx ry rz
  end
  begin
    id 18
    name RightArm
    direction 0.366897 -0.87275 0.322015
    length 10.1142
    axis 92.3258 71.2036 138.917 xyz
    dof rx ry rz
  end
  begin
    id 19
    name RightForeArm
    direction 0.702487 -0.694568 0.155197
    length 9.39835
    axis 153.863 41.5092 -176.604 xyz
    dof rx ry rz
  end
  begin
    id 20
    name RightHand
    direction 0.79502 -0.601276 0.0800636
    length 3.66142
    axis 154.247 4.59222 142.9 xyz
    dof rx ry rz
  end
  begin
    id 21
    name LeftUpLegDummy
    direction 0.65628 -0.754516 0.00165102
    length 4.76919
    axis 0 0 0 xyz
  end
  begin
    id 22
    name LeftUpLeg
    direction -0.1277 -0.689368 0.713067
    length 17.9961
    axis -48.3385 -17.8675 0.791927 xyz
    dof rx ry rz
  end
  begin
    id 23
    name LeftLeg
    direction 0.109849 -0.991246 -0.0732378
    length 13.3386
    axis -2.05791 -7.30784 1.72042 xyz
    dof rx ry rz
  end
  begin
    id 24
    name LeftFoot
    direction 0.0448355 -0.272614 0.961078
    length 5.86697
    axis -18.7733 -7.89606 10.2113 xyz
    dof rx ry rz
  end
  begin
    id 25
    name LeftToes
    direction -0.18506 0.293668 0.937823
    length 4.75197
    axis 71.2267 -7.89606 10.2113 xyz
    dof rx ry rz
  end
:hierarchy
  begin
    root RightUpLegDummy SpineDummy LeftUpLegDummy
    RightUpLegDummy RightUpLeg
    RightUpLeg RightLeg
    RightLeg RightFoot
    RightFoot RightToes
    SpineDummy Spine
    Spine Spine1
    Spine1 HEadDummy LeftShoulder1Dummy RightShoulderDummy
    HEadDummy HEad
    LeftShoulder1Dummy LeftShoulder1
    LeftShoulder1 LeftArm
    LeftArm LeftForeArm
    LeftForeArm LeftHand
    RightShoulderDummy RightShoulder
    RightShoulder RightArm
    RightArm RightForeArm
    RightForeArm RightHand
    LeftUpLegDummy LeftUpLeg
    LeftUpLeg LeftLeg
    LeftLeg LeftFoot
    LeftFoot LeftToes
  end

:SAMPLES-PER-SECOND 30
:FULLY-SPECIFIED
:DEGREES
384
root  3.74562 37.2505 3.05394 -169.637 -15.7832 -178.323
RightUpLeg  -21.7256 22.206 12.7259
RightLeg  -96.4055 -11.6463 4.31057
RightFoot  15.7407 2.4927 -11.1838
RightToes  -1.27222e-014 -6.36111e-015 6.36111e-015
Spine  -18.4565 -13.6008 4.49339
Spine1  -10.445 -19.9 17.4827
HEad  -18.7007 -39.1298 9.5188
LeftShoulder1  6.36111e-015 -1.33558e-015 6.49777e-015
LeftArm  -11.5312 -53.3866 -50.2577
LeftForeArm  -10.2929 -56.2757 14.1366
LeftHand  -0.635851 -0.142621 -7.12374
RightShoulder  -4.77083e-015 -6.36111e-015 -3.18055e-015
RightArm  13.6878 69.0646 16.437
RightForeArm  5.14309 47.021 -25.0509
RightHand  1.20707 0.102012 -9.36741
LeftUpLeg  36.1976 39.1685 16.9313
LeftLeg  -0.437368 -11.196 -1.5279
LeftFoot  -2.43448 0.839081 -2.98162
LeftToes  1.27222e-014 -5.20697e-012 1.80337e-011
385
root  4.44709 36.1578 3.62761 -169.475 -21.0812 -178.282
RightUpLeg  -24.734 24.3773 12.0508
RightLeg  -98.7176 -11.3554 5.86452
RightFoot  18.8182 3.77802 -13.9812
RightToes  -1.27222e-014 -6.36111e-015 6.36111e-015
Spine  -18.1264 -15.5643 5.4296
Spine1  -13.5437 -22.2783 24.46
HEad  -18.5412 -36.8183 7.43768
LeftShoulder1  6.36111e-015 -1.33558e-015 6.49777e-015
LeftArm  -18.538 -53.5603 -43.8829
LeftForeArm  -14.3542 -56.7489 17.1002
LeftHand  -0.2521 0.716798 -5.90225
RightShoulder  -4.77083e-015 -6.36111e-015 -3.18055e-015
RightArm  5.25488 69.7379 4.70028
RightForeArm  -2.20766 48.3701 -33.2668
RightHand  1.31346 0.118265 -10.2007
LeftUpLeg  37.5805 36.9375 13.733
LeftLeg  -4.86085 -6.83294 -1.08483
LeftFoot  -16.0012 -0.576117 4.36826
LeftToes  1.27222e-014 -5.20697e-012 1.80337e-011
386
root  5.01811 35.3569 3.94698 -171.567 -25.6086 -178.832
RightUpLeg  -25.554 29.4416 10.5052
RightLeg  -94.2081 -12.17 4.92515
RightFoot  23.25 5.99734 -18.0669
RightToes  -1.27222e-014 -6.36111e-015 6.36111e-015
Spine  -16.5018 -17.3887 4.46118
Spine1  -15.3977 -22.8774 32.0902
HEad  -18.1104 -36.0936 5.05197
LeftShoulder1  6.36111e-015 -1.33558e-015 6.49777e-015
LeftArm  -25.6796 -53.1181 -36.8938
LeftForeArm  -17.3487 -56.5071 18.9221
LeftHand  0.430086 2.16426 -3.95033
RightShoulder  -4.77083e-015 -6.36111e-015 -3.18055e-015
RightArm  0.540962 66.1033 -5.37329
RightForeArm  -13.8673 47.9635 -45.291
RightHand  1.10954 0.759005 -9.93469
LeftUpLeg  34.5454 31.9131 7.24441
LeftLeg  0.815875 -1.2648 -0.274248
LeftFoot  -23.3961 -0.228785 3.92884
LeftToes  1.27222e-014 -5.20697e-012 1.80337e-011
387
root  5.28209 34.7333 3.80287 -176.031 -26.3244 -178.574
RightUpLeg  -23.8307 32.1427 12.6129
RightLeg  -87.0339 -13.2804 3.95139
RightFoot  25.6145 8.08145 -21.2767
RightToes  -1.27222e-014 -6.36111e-015 6.36111e-015
Spine  -16.4701 -16.6665 2.9868
Spine1  -12.2043 -20.8468 34.6625
HEad  -15.4972 -38.2657 3.34864
LeftShoulder1  6.36111e-015 -1.33558e-015 6.49777e-015
LeftArm  -27.9972 -52.0977 -34.595
LeftForeArm  -17.0714 -57.0477 19.125
LeftHand  1.1705 3.70012 -2.25559
RightShoulder  -4.77083e-015 -6.36111e-015 -3.18055e-015
RightArm  1.55444 53.1743 -10.1341
RightForeArm  -30.6539 43.1611 -60.6874
RightHand  0.505966 2.03717 -7.60766
LeftUpLeg  34.6892 29.9616 6.19857
LeftLeg  11.0258 1.1505 1.54217
LeftFoot  -23.3991 0.153534 -0.663374
LeftToes  1.27222e-014 -5.20697e-012 1.80337e-011
388
root  5.18728 34.3923 3.08112 178.188 -25.6955 -177.776
RightUpLeg  -19.5756 31.0296 16.3459
RightLeg  -80.9934 -15.0727 6.24215
RightFoot  25.7882 7.661 -20.6963
RightToes  -1.27222e-014 -6.36111e-015 6.36111e-015
Spine  -21.4801 -17.2203 0.27585
Spine1  -2.56512 -19.2774 39.615
HEad  -7.7599 -36.8642 -0.795053
LeftShoulder1  6.36111e-015 -1.33558e-015 6.49777e-015
LeftArm  -30.4794 -46.2463 -30.2007
LeftForeArm  -15.2226 -56.1677 17.2815
LeftHand  1.57545 4.52616 -1.45958
RightShoulder  -4.77083e-015 -6.36111e-015 -3.18055e-015
RightArm  4.93966 35.209 -7.46098
RightForeArm  -47.0891 32.2581 -69.5684
RightHand  0.21973 2.17782 -5.35983
LeftUpLeg  40.415 30.1958 10.8546
LeftLeg  18.2242 0.169387 2.13206
LeftFoot  -19.0729 0.531434 -3.68713
LeftToes  1.27222e-014 -5.20697e-012 1.80337e-011
389
root  4.82947 34.2729 1.86944 172.818 -27.4744 -177.615
RightUpLeg  -14.8556 25.8102 17.3462
RightLeg  -74.9867 -16.9155 7.39684
RightFoot  24.754 5.77952 -17.9372
RightToes  -1.27222e-014 -6.36111e-015 6.36111e-015
Spine  -27.6841 -18.981 -2.13647
Spine1  4.34799 -19.7005 44.2699
HEad  5.53175 -36.8678 -6.49563
LeftShoulder1  6.36111e-015 -1.33558e-015 6.49777e-015
LeftArm  -27.2643 -38.9244 -31.8851
LeftForeArm  -13.3032 -51.9188 13.3827
LeftHand  1.60666 4.51495 -1.1844
RightShoulder  -4.77083e-015 -6.36111e-015 -3.18055e-015
RightArm  10.6876 10.5835 -5.59107
RightForeArm  -62.4169 19.2034 -65.7946
RightHand  0.315279 1.99614 -5.84616
LeftUpLeg  48.3957 29.3476 15.0554
LeftLeg  21.1282 -0.967344 1.90299
LeftFoot  -14.8653 0.811135 -4.66716
LeftToes  1.27222e-014 -5.20697e-012 1.80337e-011
390
root  4.35061 34.1507 0.405486 168.743 -31.0454 -177.928
RightUpLeg  -11.0832 18.2077 15.692
RightLeg  -67.9008 -17.4635 5.35295
RightFoot  22.538 5.65859 -17.4775
RightToes  -1.27222e-014 -6.36111e-015 6.36111e-015
Spine  -34.9581 -22.5166 -5.18974
Spine1  9.62693 -21.6956 50.2638
HEad  18.3618 -36.4339 -12.8422
LeftShoulder1  6.36111e-015 -1.33558e-015 6.49777e-015
LeftArm  -24.1825 -30.8333 -33.8959
LeftForeArm  -12.6842 -45.2145 9.32127
LeftHand  1.58883 4.21502 -0.429279
RightShoulder  -4.77083e-015 -6.36111e-015 -3.18055e-015
RightArm  19.9727 -14.8878 -10.3551
RightForeArm  -76.1293 10.9824 -53.1563
RightHand  -0.0357198 3.91859 -6.74026
LeftUpLeg  55.4559 27.3146 15.9073
LeftLeg  21.5882 -1.47694 1.67689
LeftFoot  -12.1623 1.2256 -6.35891
LeftToes  1.27222e-014 -5.20697e-012 1.80337e-011
391
root  3.87206 33.8794 -1.10916 165.602 -33.4339 -177.842
RightUpLeg  -8.46899 10.9287 14.3701
RightLeg  -61.3284 -18.6534 4.91907
RightFoot  19.4962 7.32627 -19.6781
RightToes  -1.27222e-014 -6.36111e-015 6.36111e-015
Spine  -42.8854 -27.1219 -8.02873
Spine1  15.3571 -24.6423 56.2853
HEad  27.1932 -33.8085 -18.4051
LeftShoulder1  6.36111e-015 -1.33558e-015 6.49777e-015
LeftArm  -23.5646 -21.5145 -33.1989
LeftForeArm  -12.8236 -40.2912 6.97641
LeftHand  1.65996 3.91457 1.07473
RightShoulder  -4.77083e-015 -6.36111e-015 -3.18055e-015
RightArm  36.7459 -33.8383 -23.7173
RightForeArm  -88.1324 7.52779 -34.7531
RightHand  -0.734376 6.48219 -5.48637
LeftUpLeg  62.395 25.1153 16.4617
LeftLeg  20.2865 -2.1319 1.21579
LeftFoot  -11.4681 1.67017 -8.50108
LeftToes  1.27222e-014 -5.20697e-012 1.80337e-011
392
root  3.50482 33.4269 -2.56006 163.351 -34.2308 -177.403
RightUpLeg  -7.04219 5.77306 14.2668
RightLeg  -56.654 -22.3757 7.71125
RightFoot  16.2345 8.33738 -21.0591
RightToes  -1.27222e-014 -6.36111e-015 6.36111e-015
Spine  -49.4982 -32.3894 -10.2378
Spine1  18.7722 -28.1754 62.2171
HEad  34.122 -29.2242 -23.0096
LeftShoulder1  6.36111e-015 -1.33558e-015 6.49777e-015
LeftArm  -23.8559 -10.3533 -30.6301
LeftForeArm  -13.3744 -39.321 6.73234
LeftHand  1.74001 3.70356 2.40869
RightShoulder  -4.77083e-015 -6.36111e-015 -3.18055e-015
RightArm  63.5199 -42.7605 -44.7189
RightForeArm  -98.6454 7.61099 -16.3028
RightHand  -1.17355 7.9682 -3.74694
LeftUpLeg  69.3385 22.9517 18.5843
LeftLeg  17.9414 -3.36488 0.454496
LeftFoot  -13.2419 1.69059 -9.36451
LeftToes  1.27222e-014 -5.20697e-012 1.80337e-011
393
root  3.30324 32.7773 -3.83918 162.677 -34.903 -177.441
RightUpLeg  -6.88335 3.31703 14.542
RightLeg  -52.9264 -26.3433 10.0974
RightFoot  12.6732 8.41935 -20.9447
RightToes  -1.27222e-014 -6.36111e-015 6.36111e-015
Spine  -53.4755 -37.6786 -12.7529
Spine1  17.3272 -30.7856 68.8926
HEad  40.8422 -25.9155 -26.5662
LeftShoulder1  6.36111e-015 -1.33558e-015 6.49777e-015
LeftArm  -23.6231 0.0312835 -28.3628
LeftForeArm  -14.5138 -40.223 7.57501
LeftHand  1.79496 3.70707 2.84004
RightShoulder  -4.77083e-015 -6.36111e-015 -3.18055e-015
RightArm  94.4342 -38.5487 -68.1432
RightForeArm  -104.994 9.2959 -5.56833
RightHand  -1.31249 8.62028 -3.73118
LeftUpLeg  73.9264 21.0579 20.1905
LeftLeg  16.8737 -4.83846 -0.25364
LeftFoot  -16.4414 1.465 -9.5853
LeftToes  1.27222e-014 -5.20697e-012 1.80337e-011
394
root  3.21527 31.9653 -4.7848 163.132 -35.1361 -178.066
RightUpLeg  -7.41177 3.26992 15.3316
RightLeg  -48.8842 -28.904 10.4753
RightFoot  8.45725 8.73197 -21.2266
RightToes  -1.27222e-014 -6.36111e-015 6.36111e-015
Spine  -55.9307 -41.0877 -14.9137
Spine1  14.5606 -31.5598 74.1102
HEad  44.88 -25.9386 -28.4667
LeftShoulder1  6.36111e-015 -1.33558e-015 6.49777e-015
LeftArm  -23.9764 6.96787 -26.7207
LeftForeArm  -16.4605 -41.3546 8.8885
LeftHand  1.91553 3.99203 2.85289
RightShoulder  -4.77083e-015 -6.36111e-015 -3.18055e-015
RightArm  114.116 -25.6958 -81.2537
RightForeArm  -106.31 9.34782 -0.857604
RightHand  -1.22033 8.43662 -4.71409
LeftUpLeg  75.6666 20.2765 20.0844
LeftLeg  18.3303 -5.55828 -0.559819
LeftFoot  -19.2971 1.35466 -10.6134
LeftToes  1.27222e-014 -5.20697e-012 1.80337e-011
395
root  3.12523 31.1171 -5.27591 163.394 -33.6264 -178.757
RightUpLeg  -7.93229 4.6449 16.9322
RightLeg  -44.9324 -31.3009 10.4374
RightFoot  4.69178 9.20836 -21.9627
RightToes  -1.27222e-014 -6.36111e-015 6.36111e-015
Spine  -58.0369 -41.1264 -14.5405
Spine1  14.0598 -31.5131 75.0134
HEad  44.4321 -27.0514 -28.4651
LeftShoulder1  6.36111e-015 -1.33558e-015 6.49777e-015
LeftArm  -24.109 10.7697 -24.3392
LeftForeArm  -21.0399 -44.1385 12.3997
LeftHand  2.18657 4.52401 3.22239
RightShoulder  -4.77083e-015 -6.36111e-015 -3.18055e-015
RightArm  121.605 -17.0133 -84.8068
RightForeArm  -103.874 6.88279 1.64449
RightHand  -0.910357 7.1811 -5.22038
LeftUpLeg  76.7989 21.0614 20.2487
LeftLeg  20.8973 -5.05794 -0.284175
LeftFoot  -21.3118 1.31216 -11.9807
LeftToes  1.27222e-014 -5.20697e-012 1.80337e-011
396
root  2.96408 30.431 -5.32322 163.716 -30.8429 -179.763
RightUpLeg  -8.971 6.43151 18.0375
RightLeg  -41.4278 -33.5186 10.223
RightFoot  3.01455 9.40733 -22.3063
RightToes  -1.27222e-014 -6.36111e-015 6.36111e-015
Spine  -58.1738 -39.3263 -12.5421
Spine1  13.3877 -31.3924 73.9599
HEad  42.1503 -26.1024 -27.6593
LeftShoulder1  6.36111e-015 -1.33558e-015 6.49777e-015
LeftArm  -20.1907 11.9329 -20.4996
LeftForeArm  -30.8794 -49.1221 21.0722
LeftHand  2.48924 5.17562 3.42628
RightShoulder  -4.77083e-015 -6.36111e-015 -3.18055e-015
RightArm  120.951 -15.8691 -83.7104
RightForeArm  -100.32 4.0731 2.06205
RightHand  -0.742279 6.22138 -4.59052
LeftUpLeg  78.1474 23.406 22.136
LeftLeg  22.9206 -3.77378 0.481847
LeftFoot  -23.0301 1.18176 -12.5036
LeftToes  1.27222e-014 -5.20697e-012 1.80337e-011
397
root  2.7534 30.0513 -4.97605 165.578 -28.2033 178.477
RightUpLeg  -11.8609 8.44099 17.266
RightLeg  -38.2763 -33.3753 8.73858
RightFoot  3.38324 9.65434 -22.8767
RightToes  -1.27222e-014 -6.36111e-015 6.36111e-015
Spine  -56.0092 -37.7771 -11.16
Spine1  10.0129 -30.8707 74.7954
HEad  40.7238 -23.5583 -27.5878
LeftShoulder1  6.36111e-015 -1.33558e-015 6.49777e-015
LeftArm  -11.4887 9.09187 -17.6819
LeftForeArm  -46.151 -54.0498 36.6839
LeftHand  2.58455 5.75909 2.38311
RightShoulder  -4.77083e-015 -6.36111e-015 -3.18055e-015
RightArm  115.314 -17.7964 -79.804
RightForeArm  -96.2696 2.27892 -0.599107
RightHand  -0.956798 6.48677 -2.41105
LeftUpLeg  77.8934 27.119 24.3949
LeftLeg  24.3603 -2.57895 1.27388
LeftFoot  -24.408 1.00448 -12.1044
LeftToes  1.27222e-014 -5.20697e-012 1.80337e-011
